<svg aria-hidden="true" style="position:absolute;width:0;height:0" xmlns="http://www.w3.org/2000/svg" overflow="hidden"><defs><symbol id="cart" viewBox="0 0 24 24"><path d="M11 21c0-.552-.225-1.053-.586-1.414a1.996 1.996 0 00-2.828 0 1.996 1.996 0 000 2.828 1.996 1.996 0 002.828 0c.361-.361.586-.862.586-1.414zm11 0c0-.552-.225-1.053-.586-1.414a1.996 1.996 0 00-2.828 0 1.996 1.996 0 000 2.828 1.996 1.996 0 002.828 0c.361-.361.586-.862.586-1.414zM7.221 7h14.57l-1.371 7.191A1 1 0 0119.4 15H9.666a1.016 1.016 0 01-.626-.203.99.99 0 01-.379-.603zM1 2h3.18l.848 4.239C5.136 6.676 5.53 7 6 7h1.221l-.4-2H6a1 1 0 00-.971 1.239L6.7 14.586A3.009 3.009 0 009.694 17H19.4a2.97 2.97 0 001.995-.727 3.02 3.02 0 00.985-1.683l1.602-8.402A1 1 0 0023 5H6.82L5.98.804A1 1 0 005 0H1a1 1 0 000 2z"/></symbol><symbol id="menu" viewBox="0 0 20 20"><path d="M0 3h20v2H0V3zm0 6h20v2H0V9zm0 6h20v2H0v-2z"/></symbol><symbol id="search" viewBox="0 0 20 20"><path d="M6.7 14.3l-5.3 5.3L0 18.2l5.4-5.3c-1.1-1.3-1.7-3-1.7-4.9 0-4.4 3.6-8 8-8s8 3.6 8 8-3.6 8-8 8c-1.9 0-3.6-.6-5-1.7zm5-.3c3.3 0 6-2.7 6-6s-2.7-6-6-6-6 2.7-6 6 2.6 6 6 6z"/></symbol><symbol id="facebook" viewBox="0 0 24 24"><path d="M21.984 12q0-2.063-.773-3.867t-2.156-3.188-3.188-2.156T12 2.016t-3.867.773-3.188 2.156-2.156 3.188T2.016 12q0 1.828.586 3.445t1.688 2.93 2.555 2.203 3.141 1.219V15H8.017v-3h1.969V9.516q0-.984.492-1.781t1.266-1.266T13.502 6h2.484v3h-1.969q-.422 0-.727.305t-.305.68v2.016h3v3h-3v6.938q1.922-.188 3.563-1.031t2.859-2.18 1.898-3.047.68-3.68z"/></symbol><symbol id="pinterest" viewBox="0 0 24 24"><path d="M12.486 4.771c-4.23 0-6.363 3.033-6.363 5.562 0 1.533.581 2.894 1.823 3.401.205.084.387.004.446-.221.041-.157.138-.553.182-.717.061-.221.037-.3-.127-.495-.359-.422-.588-.972-.588-1.747 0-2.25 1.683-4.264 4.384-4.264 2.392 0 3.706 1.463 3.706 3.412 0 2.568-1.137 4.734-2.824 4.734-.932 0-1.629-.77-1.405-1.715.268-1.13.786-2.347.786-3.16 0-.729-.392-1.336-1.2-1.336-.952 0-1.718.984-1.718 2.304 0 .841.286 1.409.286 1.409L8.728 16.79c-.34 1.44-.051 3.206-.025 3.385.013.104.149.131.21.051.088-.115 1.223-1.517 1.607-2.915.111-.396.627-2.445.627-2.445.311.589 1.213 1.108 2.175 1.108 2.863 0 4.804-2.608 4.804-6.103-.003-2.64-2.24-5.1-5.64-5.1z"/></symbol><symbol id="twitter" viewBox="0 0 24 24"><path d="M18.89 7.012c.808-.496 1.343-1.173 1.605-2.034a8.68 8.68 0 01-2.351.861c-.703-.756-1.593-1.14-2.66-1.14-1.043 0-1.924.366-2.643 1.078a3.56 3.56 0 00-1.076 2.605c0 .309.039.585.117.819C8.806 9.096 6.26 7.82 4.254 5.364c-.34.601-.51 1.213-.51 1.846 0 1.301.549 2.332 1.645 3.089-.625-.053-1.176-.211-1.645-.47 0 .929.273 1.705.82 2.388a3.623 3.623 0 002.115 1.291c-.312.08-.641.118-.979.118-.312 0-.533-.026-.664-.083.23.757.664 1.371 1.291 1.841a3.652 3.652 0 002.152.743c-1.332 1.045-2.855 1.562-4.578 1.562-.422 0-.721-.006-.902-.038C4.696 18.753 6.585 19.3 8.675 19.3c2.139 0 4.029-.542 5.674-1.626 1.645-1.078 2.859-2.408 3.639-3.974a10.77 10.77 0 001.172-4.892V8.34A7.788 7.788 0 0021 6.419a8.142 8.142 0 01-2.11.593z"/></symbol><symbol id="arrow-down" viewBox="0 0 32 32"><path d="M27.414 19.414l-10 10a2 2 0 01-2.828 0l-10-10a2 2 0 112.828-2.828L14 23.172V4a2 2 0 114 0v19.172l6.586-6.586c.39-.39.902-.586 1.414-.586s1.024.195 1.414.586a2 2 0 010 2.828z"/></symbol><symbol id="arrow-right" viewBox="0 0 32 32"><path d="M19.414 27.414l10-10a2 2 0 000-2.828l-10-10a2 2 0 10-2.828 2.828L23.172 14H4a2 2 0 100 4h19.172l-6.586 6.586c-.39.39-.586.902-.586 1.414s.195 1.024.586 1.414a2 2 0 002.828 0z"/></symbol><symbol id="instagram" viewBox="0 0 32 32"><path d="M16 2.881c4.275 0 4.781.019 6.462.094 1.563.069 2.406.331 2.969.55a4.952 4.952 0 011.837 1.194 5.015 5.015 0 011.2 1.838c.219.563.481 1.412.55 2.969.075 1.688.094 2.194.094 6.463s-.019 4.781-.094 6.463c-.069 1.563-.331 2.406-.55 2.969a4.94 4.94 0 01-1.194 1.837 5.02 5.02 0 01-1.837 1.2c-.563.219-1.413.481-2.969.55-1.688.075-2.194.094-6.463.094s-4.781-.019-6.463-.094c-1.563-.069-2.406-.331-2.969-.55a4.952 4.952 0 01-1.838-1.194 5.02 5.02 0 01-1.2-1.837c-.219-.563-.481-1.413-.55-2.969-.075-1.688-.094-2.194-.094-6.463s.019-4.781.094-6.463c.069-1.563.331-2.406.55-2.969a4.964 4.964 0 011.194-1.838 5.015 5.015 0 011.838-1.2c.563-.219 1.412-.481 2.969-.55 1.681-.075 2.188-.094 6.463-.094zM16 0c-4.344 0-4.887.019-6.594.094-1.7.075-2.869.35-3.881.744-1.056.412-1.95.956-2.837 1.85a7.833 7.833 0 00-1.85 2.831C.444 6.538.169 7.7.094 9.4.019 11.113 0 11.656 0 16s.019 4.887.094 6.594c.075 1.7.35 2.869.744 3.881.413 1.056.956 1.95 1.85 2.837a7.82 7.82 0 002.831 1.844c1.019.394 2.181.669 3.881.744 1.706.075 2.25.094 6.594.094s4.888-.019 6.594-.094c1.7-.075 2.869-.35 3.881-.744 1.05-.406 1.944-.956 2.831-1.844s1.438-1.781 1.844-2.831c.394-1.019.669-2.181.744-3.881.075-1.706.094-2.25.094-6.594s-.019-4.887-.094-6.594c-.075-1.7-.35-2.869-.744-3.881a7.506 7.506 0 00-1.831-2.844A7.82 7.82 0 0026.482.843C25.463.449 24.301.174 22.601.099c-1.712-.081-2.256-.1-6.6-.1z"/><path d="M16 7.781c-4.537 0-8.219 3.681-8.219 8.219s3.681 8.219 8.219 8.219 8.219-3.681 8.219-8.219A8.221 8.221 0 0016 7.781zm0 13.55a5.331 5.331 0 110-10.663 5.331 5.331 0 010 10.663zM26.462 7.456a1.919 1.919 0 11-3.838 0 1.919 1.919 0 013.838 0z"/></symbol><symbol id="fb" viewBox="0 0 16 28"><path d="M14.984.187v4.125h-2.453c-1.922 0-2.281.922-2.281 2.25v2.953h4.578l-.609 4.625H10.25v11.859H5.469V14.14H1.485V9.515h3.984V6.109C5.469 2.156 7.891 0 11.422 0c1.687 0 3.141.125 3.563.187z"/></symbol><symbol id="heart" viewBox="0 0 32 32"><path d="M23 2c-2.404 0-4.331.863-6.03 2.563l-.003.003h-.001L16 5.783l-.966-1.143-.003-.003h-.001C13.33 2.936 11.404 2 9 2s-4.664.936-6.364 2.636A8.945 8.945 0 000 11c0 2.402.935 4.662 2.633 6.361L14.58 29.408a1.998 1.998 0 002.84 0l11.946-12.047C31.064 15.662 32 13.403 32 11s-.937-4.664-2.636-6.364A8.94 8.94 0 0023 2z"/></symbol><symbol id="share" viewBox="0 0 24 24"><path d="M16.214 18.098a1.11 1.11 0 00.124-.211A1.99 1.99 0 0118 17c.553 0 1.051.223 1.414.586S20 18.447 20 19s-.223 1.051-.586 1.414S18.553 21 18 21s-1.051-.223-1.414-.586S16 19.553 16 19c0-.325.077-.631.214-.902zm.087-12.042l-.028-.051-.031-.05A1.991 1.991 0 0116 5c0-.553.223-1.051.586-1.414S17.447 3 18 3s1.051.223 1.414.586S20 4.447 20 5s-.223 1.051-.586 1.414S18.553 7 18 7a1.99 1.99 0 01-1.699-.944zm-8.602 4.888l.028.051.031.05c.154.283.242.608.242.955a1.987 1.987 0 01-.586 1.414C7.051 13.777 6.553 14 6 14s-1.051-.223-1.414-.586S4 12.553 4 12s.223-1.051.586-1.414S5.447 10 6 10a1.99 1.99 0 011.699.944zm6.451-4.856L8.842 9.185l-.014-.014C8.106 8.449 7.104 8 6 8s-2.106.449-2.828 1.172a3.994 3.994 0 000 5.656 3.994 3.994 0 005.656 0l.014-.014 5.309 3.094a3.988 3.988 0 001.021 3.92 3.994 3.994 0 005.656 0 3.994 3.994 0 000-5.656 3.994 3.994 0 00-5.656 0l-.01.01-5.312-3.095a3.987 3.987 0 000-2.175l5.308-3.098.014.014C15.894 8.551 16.896 9 18 9s2.106-.449 2.828-1.172a3.994 3.994 0 000-5.656 3.994 3.994 0 00-5.656 0 3.994 3.994 0 00-1.022 3.916z"/></symbol><symbol id="arrow-right-ios" viewBox="0 0 24 24"><path d="M5.859 4.125l2.156-2.109L17.999 12l-9.984 9.984-2.156-2.109L13.781 12z"/></symbol><symbol id="send" viewBox="0 0 24 24"><path d="M2.016 21v-6.984l15-2.016-15-2.016V3l21 9z"/></symbol><symbol id="arrow-up" viewBox="0 0 12 28"><path d="M11.953 7.703A.5.5 0 0111.5 8H8v19.5c0 .281-.219.5-.5.5h-3a.494.494 0 01-.5-.5V8H.5c-.203 0-.375-.109-.453-.297S0 7.312.125 7.156l5.469-6A.508.508 0 015.953 1c.141 0 .281.063.375.156l5.547 6a.534.534 0 01.078.547z"/></symbol></defs></svg>